<svg width="60.00000000000001" height="110" width="110" xmlns="http://www.w3.org/2000/svg" viewBox="-5 0 65 65">
 <!-- Created with Method Draw - http://github.com/duopixel/Method-Draw/ -->

 <g>
  <title>background</title>
  <rect x="-1" y="-1" width="62" height="67" id="canvas_background" fill="#fff"/>
  <g id="canvasGrid" display="none">
   <rect id="svg_1" width="100%" height="100%" x="0" y="0" stroke-width="0" fill="url(#gridpattern)"/>
  </g>
 </g>
 <g>
  <title>Layer 1</title>
  <path fill="none" stroke="#000" stroke-width="1.5" id="svg_31" d="m504.5,-130.54688c-504.5,130.54688 -504.5,130.54688 -504.5,130.54688l503.5,-130.54688l-1,1l-1,1" transform="rotate(152.10272216796875 504.49999999999994,-130.54687500000003) "/>
  <g stroke="null" id="svg_34">
   <path stroke="#000" fill="none" id="svg_8" d="m17.29545,10.468858c-0.65454,-2.562986 -0.75465,-2.740715 -0.87273,-3.075577c-0.08349,-0.23679 0.05013,-0.50574 0,-0.256296c-0.11209,0.557761 -0.21818,1.794079 -0.21818,3.588169c0,3.588169 -0.22458,7.175882 -0.43636,11.277117c-0.22497,4.35659 -0.43637,8.970427 -0.43637,15.890479c0,5.382258 0.04879,10.523587 0.43637,15.121582c0.30404,3.606961 0.95675,7.015392 1.52727,7.945244c0.72166,1.176168 1.89652,1.176168 2.61818,0c1.14105,-1.859695 2.50031,-6.121639 3.05455,-8.970437c1.33478,-6.860812 2.06536,-13.061187 2.61818,-21.529032c0.26745,-4.09674 0.29932,-11.564721 -0.21818,-16.40308c-0.41607,-3.89002 -1.11144,-8.259136 -1.74546,-10.764516c-0.33479,-1.322985 -1.15551,-2.896057 -1.74545,-2.562986c-1.25916,0.710915 -1.30909,2.306691 -2.4,5.125962c-1.09091,2.819282 -1.96364,5.894859 -2.61818,9.226732l-0.43637,4.613371l-0.43636,3.075568l-0.21818,2.050385"/>
   <path stroke="#000" fill="none" id="svg_9" d="m33.44091,6.368088c-1.74546,3.844464 -1.89777,4.628273 -2.18182,6.151155c-0.53244,2.854531 -1.56256,7.681384 -2.18182,11.789709c-0.69418,4.605361 -1.51087,9.229614 -2.4,16.146774c-0.42846,3.333289 -1.11994,10.501606 -1.09091,15.377887c0.02294,3.85291 -0.04902,6.781384 1.09091,8.20153c0.66939,0.833949 2.08224,0.153233 3.05455,-1.025192c2.27773,-2.760577 3.59528,-6.355964 5.01818,-10.508221c1.64974,-4.814209 3.26181,-10.701276 4.58181,-17.171967c1.81482,-8.896207 2.26481,-14.85689 2.61819,-20.247544c0.28527,-4.351719 -0.15557,-8.484341 -0.65455,-9.995629c-0.77702,-2.353425 -1.44425,-3.645527 -2.61818,-3.588169c-0.97489,0.047635 -2.88743,1.999413 -4.36364,4.10077c-1.58336,2.253887 -3.05454,5.382258 -4.14545,8.970427l-1.09091,3.844474"/>
   <path stroke="#000" fill="none" id="svg_10" d="m7.69545,10.468858c0.21818,-3.075577 1.023,-3.934032 3.92727,-1.025192c9.54473,9.559704 12.37962,19.459538 17.89091,27.936483c6.86713,10.562361 12.03449,15.770118 16.58182,18.453465c3.58439,2.11512 6.10909,2.819272 7.2,3.331873l-0.21818,-0.512601l-1.52727,-1.025192"/>
   <path stroke="#000" fill="none" id="svg_11" d="m53.73181,10.981449c-4.79999,3.075577 -9.67378,6.277605 -17.8909,12.814901c-7.26656,5.781063 -14.18182,11.533413 -20.5091,16.915671l-5.23636,4.613371l-4.58182,4.10077l-4.36363,3.844464"/>
   <path stroke="#000" fill="none" id="svg_13" d="m2.45909,4.061398c2.18182,-2.050375 2.70259,-3.609288 3.27272,-3.331873c0.20158,0.098082 -0.59555,1.083848 -1.52727,2.306681c-0.61735,0.810245 -0.62574,1.087907 0.21818,0.512601c1.36079,-0.927655 2.99218,-3.790215 3.49091,-3.075577c0.78248,1.121225 -2.33288,2.412001 -3.05454,3.588169c-0.28527,0.464926 0.26659,0.336873 1.52727,-0.768887c1.36542,-1.197634 2.61818,-2.306681 2.4,-2.562986c-0.43636,-0.512591 -1.27974,1.349065 -2.18182,2.819282c-0.28526,0.464926 0.04619,0.329565 0.65455,-0.256296c0.71585,-0.689389 1.11134,-1.254992 0.87272,-1.025192c-0.60836,0.585871 -1.82758,1.302073 -2.18181,2.306681c-0.0835,0.23679 0.43636,-0.256296 1.74545,-1.794089c0.87273,-1.025192 1.16313,-1.523338 1.09091,-1.281488c-0.46243,1.548596 -1.61129,2.40203 -2.18182,3.331873c-0.18041,0.294049 0.44872,0.277435 1.09091,-0.256296c0.89055,-0.740153 0.87273,-0.768887 0.43636,-0.256296c-1.0909,1.281488 -2.83636,2.606958 -2.83636,3.331873c0,0.362467 1.18328,-0.366052 2.4,-1.537784c0.47724,-0.45959 1.19386,-0.738569 1.09091,-0.512601c-0.37119,0.81475 -2.09969,1.045777 -1.74545,2.050385c0.08349,0.23679 0.55815,-0.389389 1.30909,-1.025192c0.39578,-0.33509 -0.13393,0.332417 -0.65455,1.025192c-0.32287,0.429638 -0.21818,0.768897 0.43636,0l1.09091,-1.281488l0.21819,-0.256296"/>
   <path stroke="#000" fill="none" id="svg_16" d="m53.07727,11.237745c0.65454,-2.819272 0.87273,-2.562976 1.30909,-1.537784c0.21818,0.512591 0.65455,1.281488 0.87273,1.537784c0.21818,0.256296 0.57615,-0.013238 0.43636,-1.025192c-0.11051,-0.800017 -0.29182,-1.617242 -0.65454,-2.306681c-0.16222,-0.308327 -0.32304,0.009931 -0.21819,0.768897c0.11052,0.800017 0.23955,2.005383 0.65455,2.306681c0.18559,0.134747 0.32303,-0.266227 0.21818,-1.025192c-0.11051,-0.800017 -0.43636,-1.537794 -0.43636,-2.050385c0,0 0,0.512601 0.21818,1.281488c0.21818,0.768897 0.30259,2.071504 0.87273,1.794089c0.20157,-0.098082 0.04585,-0.788997 -0.21819,-1.537794c-0.1867,-0.529473 -0.21818,-1.794079 -0.43636,-1.537784c-0.21818,0.256296 0.36928,0.560266 0.65454,1.025192c0.36084,0.588089 0.65455,0.512591 0.43637,0c-0.21818,-0.512591 -0.31829,-1.202921 -0.43637,-1.537794c-0.08349,-0.23678 -0.04585,0.02011 0.21819,0.768897c0.1867,0.529473 0.58766,1.420196 0.87272,1.281488c0.20158,-0.098073 -0.10826,-1.001548 -0.21818,-2.050385c-0.07997,-0.763124 -0.21818,-1.537784 -0.21818,-1.025192c0,0.768897 0.29182,2.386139 0.65454,3.075577c0.16222,0.308327 0.21819,0 0.21819,-0.768887c0,-1.025192 -0.17234,-2.070495 -0.43637,-2.819282c-0.1867,-0.529473 -0.39292,0.272841 -0.21818,1.537784c0.11052,0.800027 0.47413,1.319242 0.65455,1.025202c0.28526,-0.464926 0.10485,-1.291419 0,-2.050385c-0.11052,-0.800027 -0.31211,-0.222215 0,0.768887c0.16926,0.537503 0.50027,1.206426 0.65454,1.025192c0.15428,-0.181224 0,-0.768887 0,-1.025192l0.21818,0.256296l0,0.256306l0,0.256296"/>
   <path stroke="#000" fill="none" id="svg_17" d="m2.24091,48.913561c2.18181,2.819282 3.27272,4.10077 3.92727,4.613361l0.21818,0.512601l-0.21818,0"/>
   <path stroke="#000" fill="none" id="svg_18" d="m51.33181,55.064716c-1.52727,2.050385 -1.68686,2.58269 -1.96363,3.588169c-0.3615,1.313261 -0.65455,2.050385 -0.87273,1.794089l-0.21818,-0.256296"/>
   <path stroke="#000" fill="none" id="svg_19" d="m18.38636,22.771158c0.21818,3.075577 -0.31388,5.778608 0.65454,5.638564c1.99647,-0.288722 0.52126,-4.36667 0.65455,-5.638564c0.10991,-1.048817 0.12931,-1.50207 0.43636,-1.537784c0.78284,-0.091062 1.09091,0.512591 1.74546,0.512591c0.43636,0 0.43636,-0.256296 0.21818,0c-0.43636,0.512601 -0.981,1.770455 -1.09091,2.819282c-0.07997,0.763134 0.21818,1.281488 -0.21818,1.537784c-0.43636,0.256306 -1.09091,0.256306 -1.74546,0.256306c-0.65454,0 -1.04078,-0.249444 -1.0909,0c-0.1121,0.557771 0.87272,0.512591 1.74545,0.512591c0.87273,0 1.30909,-0.256296 1.52727,-0.256296l0.21819,-0.256296l0.21818,0"/>
   <path stroke="#000" fill="none" id="svg_20" d="m20.78636,23.540055c-0.43636,3.844474 -0.47482,4.481693 0,4.613361c0.21235,0.058893 0.43636,-0.256296 0.43636,-0.512591l-0.21818,0"/>
   <path stroke="#000" fill="none" id="svg_21" d="m18.82272,36.354956c-0.43636,4.10077 -0.52236,4.618361 -0.43636,5.638564c0.10962,1.300509 0.42847,1.764385 1.09091,1.537784c0.86371,-0.295455 1.93778,-0.817661 2.61818,-1.281488c0.42196,-0.287653 0.43355,-0.47154 0.21818,-0.512601c-0.68104,-0.129826 -1.59495,-0.440569 -2.18182,-1.281488c-0.49873,-0.714638 -0.7622,-1.76296 -0.87272,-2.562976c-0.0699,-0.505977 0.06688,-0.651309 -0.21818,-0.512601c-0.20158,0.098082 -0.28209,0.331367 -0.43637,0.512601c-0.15428,0.181224 -0.15428,0.437529 0,0.256296c0.15428,-0.181234 0.21818,-0.256296 0,-0.256296c-0.21818,0 -0.31828,0.177729 -0.43636,0.512591c-0.16699,0.47358 0.51943,0.635051 1.09091,0c0.79249,-0.880663 1.42717,-1.715512 1.30909,-2.050385c-0.0835,-0.23678 -0.71751,0.991439 -1.09091,2.050385c-0.26403,0.748797 -0.43637,1.025192 0,1.025192l0.21818,-0.512591l-0.21818,-0.256296l-0.65455,0"/>
   <path stroke="#000" fill="none" id="svg_22" d="m16.42272,38.917942c-2.4,0.768887 -2.77246,1.35655 -2.61818,1.537784c0.30856,0.362458 0.87273,0.256296 1.30909,0l0.65455,0l0.21818,-0.256296l0,-0.256296"/>
   <path stroke="#000" fill="none" id="svg_23" d="m20.56818,37.123853c2.4,-0.512601 2.65139,-0.708756 3.05454,-0.512601c0.57014,0.277415 0.43637,1.281498 0.43637,2.050385l-0.21818,0.768897l-0.21819,0.256296l0,0"/>
   <path stroke="#000" fill="none" id="svg_25" d="m33.22272,24.565247c-0.87272,3.844474 -1.19917,4.333431 -1.30909,5.382258c-0.02665,0.254375 -0.09392,0.222215 0.21819,-0.768897c0.33852,-1.074996 0.61609,-1.918707 1.0909,-2.050375c0.4247,-0.117776 1.06506,0.207522 1.74546,-0.256306c0.84392,-0.575306 1.34139,-1.340015 1.09091,-2.050385c-0.35424,-1.004608 -1.06442,-0.898713 -1.74546,-0.768887c-0.21536,0.041051 0.00564,0.594703 0.43637,0.512591c0.68104,-0.129826 1.55986,-0.647338 1.74545,-0.512591c0.41501,0.301297 0.03827,1.553507 -0.43636,3.075577c-0.40413,1.295994 -0.48755,2.858293 -0.65455,3.331873c-0.11808,0.334873 -0.43636,0.512591 -0.87272,0.512591c-0.43637,0 -0.89024,-0.176649 -1.52728,0c-0.47482,0.131678 -0.71845,0.437529 -0.87272,0.256306c-0.15428,-0.181234 0.19168,-0.382775 0.87272,-0.512601c0.6461,-0.123163 1.30909,0 1.74546,0l-0.21818,0"/>
   <path stroke="#000" fill="none" id="svg_26" d="m31.47727,38.661636c-1.30909,2.306691 -1.82804,3.629319 -1.52727,5.125962c0.11209,0.557771 1.39159,1.320895 2.4,0.768897c1.26631,-0.693172 1.95962,-1.976571 2.18181,-3.331873c0.08252,-0.503353 -0.32584,-0.543721 -0.43636,0.256296c-0.0699,0.505977 0.28335,1.038381 0.65454,0.768897c0.41501,-0.301297 0.28527,-1.072867 0,-1.537794c-0.36083,-0.588089 -1.10802,-0.971329 -1.74545,-1.281488c-0.45073,-0.219314 -0.91049,-0.037744 -1.09091,0.256296c-0.28526,0.464926 -0.28507,1.399086 0,1.537794c0.20157,0.098082 0.38624,-0.519453 0.43636,-0.768897c0.1121,-0.557771 0.02666,-0.51068 0,-0.256296c-0.10991,1.048827 -0.43636,2.306681 -0.65454,3.075577c-0.21818,0.768887 -0.28209,1.462722 -0.43636,1.281488c-0.15428,-0.181234 0.32645,-1.257864 0.43636,-2.306681c0.07997,-0.763134 0.38517,-1.83311 0.21818,-2.306691c-0.11808,-0.334863 -0.28434,-0.315407 -0.43636,0c-0.44323,0.919585 -0.49725,2.868264 -1.09091,5.125962c-0.34676,1.318737 -0.65455,2.562986 -0.65455,3.331883c0,0.768887 0.5065,0.817839 0.87273,0c0.54699,-1.221516 0.7631,-3.056567 0.87273,-4.357075c0.08599,-1.020202 0.1001,-1.459217 0.21818,-1.794079c0.0835,-0.23679 0,0 -0.21818,0.256296l0,0.512591l0,0.256306"/>
   <path stroke="#000" fill="none" id="svg_27" d="m20.35,43.787599c0,-2.819272 -0.00584,-3.016684 -0.21819,-3.075577c-0.47481,-0.131668 -0.36268,1.554745 -0.65454,3.075577c-0.34931,1.820209 -1.0734,3.155224 -0.43636,3.331883c0.47481,0.131668 0.43636,-1.537794 0.65454,-3.075577c0.21818,-1.537794 0.28507,-3.470591 0,-3.331883c-0.20157,0.098082 -0.21818,1.281498 0,2.306691c0.21818,1.025192 0.57168,1.366342 0.87273,0.512591c0.42574,-1.207387 0.48221,-2.583076 0.21818,-3.331873c-0.1867,-0.529473 -0.21818,-0.768897 -0.21818,-0.512601l0,0.256306l-0.21818,0"/>
   <path stroke="#000" fill="none" id="svg_28" d="m28.85909,40.455726c-2.4,-0.512591 -2.38833,-0.374072 -1.96364,-0.256296c0.94964,0.263345 1.96364,0.768897 2.83636,1.025192c0.87273,0.256296 1.52728,0 1.3091,-0.256296l-0.21819,-0.512601l0,-0.256296"/>
   <path stroke="#000" fill="none" id="svg_29" d="m34.31363,40.455726c2.61819,0.256296 3.16221,0.994063 3.27273,1.794089c0.03495,0.252989 0,0.768887 -0.21818,1.281488l-0.21818,0.512601l-0.21819,0.256296l-0.43636,-0.256296"/>
  </g>
 </g>
</svg>